<svg xmlns="http://www.w3.org/2000/svg" viewBox="0 0 1024 1024" fill="none">
  <defs>
    <linearGradient id="brightLine" x1="190" y1="122" x2="836" y2="900" gradientUnits="userSpaceOnUse">
      <stop offset="0" stop-color="#FFFFFF"/>
      <stop offset="0.48" stop-color="#F4F7FB"/>
      <stop offset="1" stop-color="#D8E0EA"/>
    </linearGradient>
    <linearGradient id="quietLine" x1="252" y1="240" x2="784" y2="804" gradientUnits="userSpaceOnUse">
      <stop offset="0" stop-color="#CBD5E1"/>
      <stop offset="1" stop-color="#94A3B8"/>
    </linearGradient>
  </defs>

  <g stroke-linecap="round" stroke-linejoin="round">
    <g stroke="#0F172A" opacity="0.32">
      <rect x="126" y="126" width="772" height="772" rx="190" stroke-width="52"/>
      <rect x="182" y="182" width="660" height="660" rx="154" stroke-width="26"/>
      <circle cx="512" cy="512" r="282" stroke-width="54"/>
      <circle cx="512" cy="512" r="230" stroke-width="22"/>

      <g stroke-width="28">
        <line x1="512" y1="218" x2="512" y2="292"/>
        <line x1="806" y1="512" x2="732" y2="512"/>
        <line x1="512" y1="806" x2="512" y2="732"/>
        <line x1="218" y1="512" x2="292" y2="512"/>
      </g>
      <g stroke-width="18">
        <line x1="655" y1="264" x2="630" y2="308"/>
        <line x1="760" y1="369" x2="716" y2="394"/>
        <line x1="760" y1="655" x2="716" y2="630"/>
        <line x1="655" y1="760" x2="630" y2="716"/>
        <line x1="369" y1="760" x2="394" y2="716"/>
        <line x1="264" y1="655" x2="308" y2="630"/>
        <line x1="264" y1="369" x2="308" y2="394"/>
        <line x1="369" y1="264" x2="394" y2="308"/>
      </g>

      <path d="M512 512V337" stroke-width="36"/>
      <path d="M512 512L382 398" stroke-width="42"/>
      <path d="M512 512L655 594" stroke-width="34"/>
      <circle cx="512" cy="512" r="45" stroke-width="26"/>
    </g>

    <g stroke="url(#brightLine)">
      <rect x="126" y="126" width="772" height="772" rx="190" stroke-width="28"/>
      <rect x="182" y="182" width="660" height="660" rx="154" stroke-width="10" opacity="0.9"/>
      <circle cx="512" cy="512" r="282" stroke-width="34"/>
      <circle cx="512" cy="512" r="230" stroke-width="8" opacity="0.76"/>

      <g stroke-width="24">
        <line x1="512" y1="218" x2="512" y2="292"/>
        <line x1="806" y1="512" x2="732" y2="512"/>
        <line x1="512" y1="806" x2="512" y2="732"/>
        <line x1="218" y1="512" x2="292" y2="512"/>
      </g>

      <path d="M512 512V337" stroke-width="24"/>
      <path d="M512 512L382 398" stroke-width="30"/>
      <circle cx="512" cy="512" r="45" stroke-width="18"/>
      <circle cx="512" cy="512" r="16" stroke-width="16"/>
    </g>

    <g stroke="url(#quietLine)" opacity="0.9">
      <g stroke-width="14">
        <line x1="655" y1="264" x2="630" y2="308"/>
        <line x1="760" y1="369" x2="716" y2="394"/>
        <line x1="760" y1="655" x2="716" y2="630"/>
        <line x1="655" y1="760" x2="630" y2="716"/>
        <line x1="369" y1="760" x2="394" y2="716"/>
        <line x1="264" y1="655" x2="308" y2="630"/>
        <line x1="264" y1="369" x2="308" y2="394"/>
        <line x1="369" y1="264" x2="394" y2="308"/>
      </g>
      <path d="M512 512L655 594" stroke-width="24"/>
    </g>
  </g>
</svg>
